<svg width="24" height="24" viewBox="0 0 24 24" fill="none" xmlns="http://www.w3.org/2000/svg">
<path d="M21.4302 11.2611C21.0322 11.2611 20.7092 10.938 20.7092 10.54C20.7092 7.77876 19.6344 5.1839 17.6826 3.23124C17.401 2.94957 17.401 2.49292 17.6826 2.21125C17.9643 1.92958 18.421 1.92958 18.7028 2.21125C20.9266 4.4359 22.1513 7.39429 22.1513 10.54C22.1513 10.938 21.8283 11.2611 21.4302 11.2611Z" fill="#333333"/>
<path d="M1.72107 11.2607C1.32304 11.2607 1 10.9377 1 10.5397C1 7.39396 2.2249 4.43557 4.44955 2.2118C4.73122 1.93013 5.18805 1.93013 5.46971 2.2118C5.75138 2.49347 5.75138 2.9503 5.46971 3.23197C3.51705 5.18357 2.44214 7.77843 2.44214 10.5397C2.44214 10.9377 2.1191 11.2607 1.72107 11.2607Z" fill="#333333"/>
<path d="M11.5757 24C9.58751 24 7.97038 22.3829 7.97038 20.3947C7.97038 19.9966 8.29342 19.6736 8.69145 19.6736C9.08948 19.6736 9.41252 19.9966 9.41252 20.3947C9.41252 21.5879 10.3825 22.5579 11.5757 22.5579C12.7688 22.5579 13.7389 21.5879 13.7389 20.3947C13.7389 19.9966 14.062 19.6736 14.46 19.6736C14.858 19.6736 15.1811 19.9966 15.1811 20.3947C15.1811 22.3829 13.564 24 11.5757 24Z" fill="#333333"/>
<path d="M19.5075 21.1157H3.64399C2.71607 21.1157 1.96138 20.361 1.96138 19.4333C1.96138 18.9409 2.1758 18.4747 2.54989 18.1545C4.0121 16.919 4.84566 15.1232 4.84566 13.2206V10.54C4.84566 6.82901 7.86461 3.81006 11.5758 3.81006C15.2867 3.81006 18.3057 6.82901 18.3057 10.54V13.2206C18.3057 15.1232 19.1392 16.919 20.5919 18.1478C20.9755 18.4747 21.19 18.9409 21.19 19.4333C21.19 20.361 20.4353 21.1157 19.5075 21.1157ZM11.5758 5.2522C8.65961 5.2522 6.2878 7.62401 6.2878 10.54V13.2206C6.2878 15.548 5.26781 17.7459 3.49013 19.2486C3.45651 19.2775 3.40352 19.3372 3.40352 19.4333C3.40352 19.5639 3.51319 19.6736 3.64399 19.6736H19.5075C19.6381 19.6736 19.7478 19.5639 19.7478 19.4333C19.7478 19.3372 19.695 19.2775 19.6631 19.2506C17.8835 17.7459 16.8635 15.548 16.8635 13.2206V10.54C16.8635 7.62401 14.4917 5.2522 11.5758 5.2522Z" fill="#333333"/>
</svg>
