<svg width="16" height="20" viewBox="0 0 16 20" fill="none" xmlns="http://www.w3.org/2000/svg">
<line x1="0.25" y1="-0.25" x2="5.16865" y2="-0.25" transform="matrix(0.611921 0.790919 -0.787779 0.615959 4 4.4762)" stroke="#D60000" stroke-width="0.5" stroke-linecap="round"/>
<line x1="0.25" y1="-0.25" x2="5.47079" y2="-0.25" transform="matrix(-0.662404 0.749147 -0.745665 -0.666321 12.5263 4)" stroke="#D60000" stroke-width="0.5" stroke-linecap="round"/>
<line x1="4.25" y1="4.2262" x2="12.75" y2="4.2262" stroke="#D60000" stroke-width="0.5" stroke-linecap="round"/>
<line x1="7.5658" y1="8.53564" x2="7.5658" y2="12.3214" stroke="#D60000" stroke-width="0.5" stroke-linecap="round"/>
<line x1="8.98685" y1="8.53564" x2="8.98685" y2="13.7499" stroke="#D60000" stroke-width="0.5" stroke-linecap="round"/>
<line x1="0.25" y1="-0.25" x2="1.765" y2="-0.25" transform="matrix(0.705239 0.70897 -0.705239 0.70897 7.3158 12.5715)" stroke="#D60000" stroke-width="0.5" stroke-linecap="round"/>
<path d="M0.409766 1.99826V1.99805C0.409766 1.12402 1.13472 0.4 2.00977 0.4H14C14.8721 0.4 15.6 1.12785 15.6 2V18.5566V19.4228L8.14045 16.6255L8 16.5728L7.85955 16.6255L0.400313 19.4227L0.409766 1.99826ZM2.00977 1.6H1.60997L1.60977 1.99979L1.60195 17.1131L1.60165 17.6907L2.14244 17.4878L8.00002 15.2905L13.8596 17.4878L14.4 17.6905V17.1133V2V1.6H14H2.00977Z" fill="#333333" stroke="black" stroke-width="0.8"/>
</svg>
