<svg width="24" height="24"  fill="#E60000" xmlns="http://www.w3.org/2000/svg" xmlns:xlink="http://www.w3.org/1999/xlink" version="1.2" baseProfile="tiny" x="0px" y="0px" viewBox="0 0 100 100" xml:space="preserve"><g><path d="M92.5,15h-85c-1.011,0-1.923,0.609-2.31,1.543c-0.387,0.935-0.173,2.01,0.542,2.725L37.5,51.035V92.5   c0,0.866,0.448,1.671,1.186,2.127C39.087,94.875,39.543,95,40,95c0.382,0,0.766-0.088,1.118-0.264l20-10   c0.847-0.424,1.382-1.289,1.382-2.236V51.035l31.768-31.768c0.715-0.715,0.929-1.79,0.542-2.725C94.423,15.609,93.511,15,92.5,15z    M58.232,48.232C57.764,48.701,57.5,49.337,57.5,50v30.955l-15,7.5V50c0-0.663-0.264-1.299-0.732-1.768L13.535,20h72.93   L58.232,48.232z"></path></g></svg>