<svg width="24" height="24" viewBox="0 0 24 24" fill="none" xmlns="http://www.w3.org/2000/svg">
<path d="M5.12109 3.70703C4.73061 3.31655 4.09751 3.31655 3.70703 3.70703C3.31655 4.09751 3.31655 4.73061 3.70703 5.12109L10.293 11.707L3.70703 18.293C3.31655 18.6835 3.31655 19.3165 3.70703 19.707C4.09751 20.0975 4.73061 20.0975 5.12109 19.707L11.707 13.1211L18.293 19.707C18.6835 20.0975 19.3165 20.0975 19.707 19.707C20.0975 19.3165 20.0975 18.6835 19.707 18.293L13.1211 11.707L19.707 5.12109C20.0975 4.73061 20.0975 4.09751 19.707 3.70703C19.3165 3.31655 18.6835 3.31655 18.293 3.70703L11.707 10.293L5.12109 3.70703Z" fill="#333333"/>
</svg>
