<?xml version="1.0" encoding="UTF-8" standalone="no"?>
<svg
   xmlns:dc="http://purl.org/dc/elements/1.1/"
   xmlns:cc="http://creativecommons.org/ns#"
   xmlns:rdf="http://www.w3.org/1999/02/22-rdf-syntax-ns#"
   xmlns:svg="http://www.w3.org/2000/svg"
   xmlns="http://www.w3.org/2000/svg"
   xmlns:sodipodi="http://sodipodi.sourceforge.net/DTD/sodipodi-0.dtd"
   xmlns:inkscape="http://www.inkscape.org/namespaces/inkscape"
   width="100"
   height="100"
   viewBox="0 0 100 100"
   version="1.1"
   id="svg14"
   sodipodi:docname="label grey hollow.svg"
   inkscape:version="1.0 (4035a4fb49, 2020-05-01)">
  <metadata
     id="metadata20">
    <rdf:RDF>
      <cc:Work
         rdf:about="">
        <dc:format>image/svg+xml</dc:format>
        <dc:type
           rdf:resource="http://purl.org/dc/dcmitype/StillImage" />
        <dc:title />
      </cc:Work>
    </rdf:RDF>
  </metadata>
  <defs
     id="defs18" />
  <sodipodi:namedview
     inkscape:document-rotation="0"
     pagecolor="#ffffff"
     bordercolor="#666666"
     borderopacity="1"
     objecttolerance="10"
     gridtolerance="10"
     guidetolerance="10"
     inkscape:pageopacity="0"
     inkscape:pageshadow="2"
     inkscape:window-width="1920"
     inkscape:window-height="1028"
     id="namedview16"
     showgrid="false"
     inkscape:zoom="8.6"
     inkscape:cx="50"
     inkscape:cy="50.639777"
     inkscape:window-x="-8"
     inkscape:window-y="-8"
     inkscape:window-maximized="1"
     inkscape:current-layer="g12" />
  <g
     transform="translate(50 50) scale(0.69 0.69) rotate(-45) translate(-50 -50)"
     style="fill:#000000"
     id="g12">
    <g
       id="g843"
       style="stroke-width:2.89855072;stroke-miterlimit:4;stroke-dasharray:none">
      <g
         id="g831"
         transform="matrix(1.0247924,1.0247924,-1.0247924,1.0247924,50,-52.479244)"
         style="opacity:1;stroke-width:2.00000007;stroke-miterlimit:4;stroke-dasharray:none;stroke:#666666;stroke-opacity:1;fill:none">
        <path
           style="color:#000000;font-style:normal;font-variant:normal;font-weight:normal;font-stretch:normal;font-size:medium;line-height:normal;font-family:sans-serif;font-variant-ligatures:normal;font-variant-position:normal;font-variant-caps:normal;font-variant-numeric:normal;font-variant-alternates:normal;font-variant-east-asian:normal;font-feature-settings:normal;font-variation-settings:normal;text-indent:0;text-align:start;text-decoration:none;text-decoration-line:none;text-decoration-style:solid;text-decoration-color:#000000;letter-spacing:normal;word-spacing:normal;text-transform:none;writing-mode:lr-tb;direction:ltr;text-orientation:mixed;dominant-baseline:auto;baseline-shift:baseline;text-anchor:start;white-space:normal;shape-padding:0;shape-margin:0;inline-size:0;clip-rule:nonzero;display:inline;overflow:visible;visibility:visible;isolation:auto;mix-blend-mode:normal;color-interpolation:sRGB;color-interpolation-filters:linearRGB;solid-color:#000000;solid-opacity:1;vector-effect:none;fill:none;fill-opacity:1;fill-rule:nonzero;stroke-width:2.00000007;stroke-linecap:butt;stroke-linejoin:miter;stroke-miterlimit:4;stroke-dasharray:none;stroke-dashoffset:0;stroke-opacity:1;color-rendering:auto;image-rendering:auto;shape-rendering:auto;text-rendering:auto;enable-background:accumulate;stop-color:#000000;stop-opacity:1;stroke:#666666"
           d="m 50,2.5 c -3.276009,2e-7 -6.552253,1.2553776 -9.0625,3.765625 L 6.265625,40.9375 c -5.0204947,5.020495 -5.0204949,13.104505 0,18.125 L 40.9375,93.734375 c 5.020495,5.020495 13.104505,5.020495 18.125,0 L 93.734375,59.0625 c 5.020495,-5.020495 5.020495,-13.104505 0,-18.125 L 59.0625,6.265625 C 56.552253,3.7553775 53.276009,2.4999998 50,2.5 Z m 0.02148,6.3378906 c 0.01237,-3.06e-5 0.02474,-3.06e-5 0.03711,0 4.142136,-10e-8 7.5,3.3578644 7.5,7.5000004 0,4.142136 -3.357864,7.5 -7.5,7.5 -4.142136,0 -7.5,-3.357864 -7.5,-7.5 -5.1e-5,-4.127687 3.335254,-7.4795767 7.46289,-7.5000004 z"
           id="path833" />
        <path
           style="color:#000000;font-style:normal;font-variant:normal;font-weight:normal;font-stretch:normal;font-size:medium;line-height:normal;font-family:sans-serif;font-variant-ligatures:normal;font-variant-position:normal;font-variant-caps:normal;font-variant-numeric:normal;font-variant-alternates:normal;font-variant-east-asian:normal;font-feature-settings:normal;font-variation-settings:normal;text-indent:0;text-align:start;text-decoration:none;text-decoration-line:none;text-decoration-style:solid;text-decoration-color:#000000;letter-spacing:normal;word-spacing:normal;text-transform:none;writing-mode:lr-tb;direction:ltr;text-orientation:mixed;dominant-baseline:auto;baseline-shift:baseline;text-anchor:start;white-space:normal;shape-padding:0;shape-margin:0;inline-size:0;clip-rule:nonzero;display:inline;overflow:visible;visibility:visible;isolation:auto;mix-blend-mode:normal;color-interpolation:sRGB;color-interpolation-filters:linearRGB;solid-color:#000000;solid-opacity:1;vector-effect:none;fill-opacity:1;fill-rule:nonzero;stroke-width:2.00000007;stroke-linecap:butt;stroke-linejoin:miter;stroke-miterlimit:4;stroke-dasharray:none;stroke-dashoffset:0;stroke-opacity:1;color-rendering:auto;image-rendering:auto;shape-rendering:auto;text-rendering:auto;enable-background:accumulate;stop-color:#000000;stop-opacity:1;stroke:#666666;fill:none"
           d="M 50 1.8828125 C 46.566231 1.8828127 43.127424 3.2007004 40.5 5.828125 L 5.828125 40.5 C 0.57326027 45.754865 0.57326005 54.245135 5.828125 59.5 L 40.5 94.171875 C 45.754865 99.42674 54.245135 99.42674 59.5 94.171875 L 94.171875 59.5 C 99.42674 54.245135 99.42674 45.754865 94.171875 40.5 L 59.5 5.828125 C 56.872576 3.2007003 53.433769 1.8828123 50 1.8828125 z M 50 3.1171875 C 53.118249 3.1171873 56.23193 4.3100547 58.625 6.703125 L 93.296875 41.375 C 98.083 46.161125 98.083 53.838875 93.296875 58.625 L 58.625 93.296875 C 53.838875 98.083 46.161125 98.083 41.375 93.296875 L 6.703125 58.625 C 1.9170001 53.838875 1.9170003 46.161125 6.703125 41.375 L 41.375 6.703125 C 43.76807 4.3100548 46.881751 3.1171877 50 3.1171875 z M 50.017578 8.2207031 C 45.557286 8.2427728 41.941351 11.877544 41.941406 16.337891 C 41.941406 20.813764 45.58272 24.455078 50.058594 24.455078 C 54.534467 24.455078 58.175781 20.813764 58.175781 16.337891 C 58.175782 11.862682 54.535508 8.2217852 50.060547 8.2207031 C 50.047158 8.22067 50.03292 8.22067 50.019531 8.2207031 L 50.017578 8.2207031 z M 50.023438 9.4550781 L 50.025391 9.4550781 C 50.036074 9.4550548 50.045957 9.4550517 50.056641 9.4550781 L 50.058594 9.4550781 C 53.866992 9.455078 56.941407 12.529493 56.941406 16.337891 C 56.941406 20.146288 53.866991 23.220703 50.058594 23.220703 C 46.250196 23.220703 43.175781 20.146288 43.175781 16.337891 C 43.175734 12.54353 46.229383 9.4749216 50.023438 9.4550781 z "
           id="path835" />
      </g>
      <circle
         style="fill:#666666;fill-opacity:1;stroke:none;stroke-width:2.89855072;stroke-miterlimit:4;stroke-dasharray:none;stroke-opacity:1"
         id="path837"
         cx="68.242264"
         cy="-52.246643"
         transform="rotate(47.797244)"
         r="12.318841" />
    </g>
  </g>
</svg>
