<svg width="21" height="21" viewBox="0 0 21 21" fill="none" xmlns="http://www.w3.org/2000/svg">
<path d="M17.9761 13.0563C19.1808 13.0604 20.15 12.0479 20.15 10.8134L20.15 3.59897C20.15 2.36431 19.1807 1.35212 17.9763 1.35212L16.7552 1.35212C16.2551 1.35212 15.7925 1.52765 15.4257 1.82402C14.8901 1.22857 14.1245 0.85 13.2738 0.85L5.34973 0.849999C4.40236 0.849999 3.60097 1.1196 3.0072 1.62655C2.41341 2.13352 2.03996 2.86707 1.92914 3.77125L0.944861 10.1756L0.944783 10.176L0.890574 10.521L0.890315 10.5228C0.866359 10.6883 0.850001 10.8605 0.850001 11.0344L0.850001 11.0347C0.854075 12.6386 2.11779 13.9561 3.67884 13.9561L7.44049 13.9561L7.44049 16.5858C7.44049 17.9462 7.83267 18.9684 8.64355 19.5815C9.27817 20.0639 10.0217 20.1658 10.6044 20.1481C11.1807 20.1307 11.616 19.996 11.6696 19.9779C12.0097 19.868 12.2375 19.5389 12.2375 19.1767L12.2375 15.8226C12.2375 14.6465 12.9027 13.8496 13.6007 13.3353C14.3005 12.8197 15.0161 12.6023 15.0649 12.5892L15.0806 12.585L17.9763 12.9063M17.9761 13.0563C17.976 13.0563 17.9759 13.0563 17.9758 13.0563L17.9763 12.9063M17.9761 13.0563L17.9763 13.0563L17.9763 12.9063M17.9761 13.0563L16.7552 13.0563C16.2108 13.0563 15.712 12.8477 15.3291 12.5019M17.9763 12.9063L16.7552 12.9063C16.2202 12.9063 15.7317 12.6893 15.3673 12.3318M15.3291 12.5019L15.4136 12.4745L15.3673 12.3318M15.3291 12.5019L15.1056 12.5745M15.3291 12.5019C15.3064 12.4814 15.2841 12.4604 15.2622 12.4389L15.3673 12.3318M15.3673 12.3318L15.1056 12.5745M15.1056 12.5745C15.1178 12.5688 15.136 12.5585 15.1534 12.5404L15.0455 12.4363L15.085 12.558L15.0918 12.579L15.093 12.5786C15.085 12.5824 15.0773 12.5849 15.0766 12.5851C15.0763 12.5852 15.0772 12.5849 15.0798 12.5841C15.0808 12.5839 15.083 12.5832 15.0861 12.5822L15.0932 12.5785L15.1056 12.5745ZM15.5233 1.93802C15.4843 1.96936 15.4465 2.00217 15.4099 2.03637C15.3784 1.99747 15.3458 1.95943 15.3123 1.92228L15.5233 1.93802ZM3.54022 4.0154L3.54103 4.01016C3.54159 4.00765 3.54224 4.00454 3.54283 4.00127C3.54375 3.99622 3.5448 3.98934 3.54539 3.98112C3.56879 3.78338 3.61404 3.42506 3.84737 3.11345C4.0757 2.80852 4.504 2.5238 5.34973 2.5238L13.2738 2.5238C13.9885 2.5238 14.5815 3.13044 14.5815 3.88418L14.5815 10.8134C14.5815 10.8715 14.5843 10.9289 14.589 10.9857C14.3816 11.0496 13.4287 11.3686 12.5075 12.0865C11.545 12.8367 10.6078 14.0311 10.6078 15.8266L10.6078 18.4717C10.2646 18.4897 9.87891 18.4396 9.60907 18.2306L9.60891 18.2305C9.27005 17.9689 9.07022 17.4396 9.07022 16.5858L9.07022 13.1151C9.07022 12.6558 8.70953 12.2742 8.25342 12.2742L3.67884 12.2742C3.0226 12.2742 2.48361 11.7201 2.48361 11.0303C2.48361 10.9509 2.49055 10.8659 2.50156 10.778L3.54022 4.0154ZM16.2112 3.59496C16.2112 3.27505 16.4592 3.02592 16.7552 3.02592L17.9763 3.02592C18.2723 3.02592 18.5203 3.27505 18.5203 3.59496L18.5203 10.8134C18.5203 11.1333 18.2723 11.3825 17.9763 11.3825L16.7552 11.3825C16.4592 11.3825 16.2112 11.1333 16.2112 10.8134L16.2112 3.59496Z" fill="#ff0000" stroke="#ff0000" stroke-width="0.3"/>
</svg>
