<svg width="16" height="12" viewBox="0 0 16 12" fill="none" xmlns="http://www.w3.org/2000/svg">
<path d="M14.5227 8.14291C14.5227 8.85551 14.0577 9.61471 13.0651 10.234C12.0833 10.8466 10.6801 11.2501 9.09091 11.2501C7.50169 11.2501 6.09855 10.8466 5.11672 10.234C4.12415 9.61471 3.65909 8.85551 3.65909 8.14291C3.65909 7.43031 4.12415 6.67111 5.11672 6.0518C6.09855 5.43918 7.50169 5.03577 9.09091 5.03577C10.6801 5.03577 12.0833 5.43918 13.0651 6.0518C14.0577 6.67111 14.5227 7.43031 14.5227 8.14291Z" fill="#E2E2E2" stroke="#424242" stroke-width="1.5"/>
<path d="M15.25 5.57138C15.25 6.30574 14.8008 7.06419 13.8815 7.67368C12.9677 8.27944 11.6619 8.67852 10.1818 8.67852C8.70174 8.67852 7.39589 8.27944 6.48215 7.67368C5.56278 7.06419 5.11363 6.30574 5.11363 5.57138C5.11363 4.83701 5.56278 4.07857 6.48215 3.46907C7.39589 2.86332 8.70174 2.46423 10.1818 2.46423C11.6619 2.46423 12.9677 2.86332 13.8815 3.46907C14.8008 4.07857 15.25 4.83701 15.25 5.57138Z" fill="#E2E2E2" stroke="#424242" stroke-width="1.5"/>
<path d="M10.8864 3.85714C10.8864 4.59151 10.4372 5.34995 9.51784 5.95945C8.60411 6.5652 7.29825 6.96429 5.81818 6.96429C4.33811 6.96429 3.03226 6.5652 2.11852 5.95945C1.19915 5.34995 0.75 4.59151 0.75 3.85714C0.75 3.12278 1.19915 2.36433 2.11852 1.75484C3.03226 1.14908 4.33811 0.75 5.81818 0.75C7.29825 0.75 8.60411 1.14908 9.51784 1.75484C10.4372 2.36433 10.8864 3.12278 10.8864 3.85714Z" fill="#E2E2E2" stroke="#424242" stroke-width="1.5"/>
</svg>
