<svg height='100px' width='100px'  fill="#B30083" xmlns:x="http://ns.adobe.com/Extensibility/1.0/" xmlns:i="http://ns.adobe.com/AdobeIllustrator/10.0/" xmlns:graph="http://ns.adobe.com/Graphs/1.0/" xmlns="http://www.w3.org/2000/svg" xmlns:xlink="http://www.w3.org/1999/xlink" version="1.1" x="0px" y="0px" viewBox="0 0 100 100" style="enable-background:new 0 0 100 100;" xml:space="preserve"><g><g i:extraneous="self"><g><path d="M89.1,9.3H10.9c-4.6,0-8.4,3.8-8.4,8.4v45.5c0,4.6,3.8,8.4,8.4,8.4h6.3v11.3c0,3.2,1.9,6,4.8,7.3c1,0.4,2,0.6,3,0.6     c2,0,4-0.8,5.5-2.3l16.8-16.8h41.6c4.6,0,8.4-3.8,8.4-8.4V17.7C97.5,13,93.7,9.3,89.1,9.3z M91.5,63.2c0,1.3-1.1,2.4-2.4,2.4     H46.2c-0.8,0-1.6,0.3-2.1,0.9L26.4,84.2c-0.8,0.8-1.6,0.5-2,0.4c-0.3-0.1-1.1-0.6-1.1-1.7V68.6c0-1.7-1.4-3-3-3h-9.4     c-1.3,0-2.4-1.1-2.4-2.4V17.7c0-1.3,1.1-2.4,2.4-2.4h78.2c1.3,0,2.4,1.1,2.4,2.4V63.2z"></path><path d="M80.9,36.4l-4.5-0.7l-2.1-4.2c-0.2-0.4-0.6-0.6-1-0.6c-0.4,0-0.8,0.2-1,0.6l-2,4.1l-4.6,0.7c-0.4,0.1-0.8,0.4-0.9,0.8     c-0.1,0.4,0,0.8,0.3,1.1l3.3,3.2L67.5,46c-0.1,0.4,0.1,0.8,0.4,1.1c0.3,0.2,0.8,0.3,1.2,0.1l4.1-2.1l4.1,2.2     c0.2,0.1,0.3,0.1,0.5,0.1c0.2,0,0.5-0.1,0.7-0.2c0.3-0.3,0.5-0.7,0.4-1.1l-0.8-4.5l3.3-3.3c0.3-0.3,0.4-0.7,0.3-1.1     C81.6,36.8,81.3,36.5,80.9,36.4z"></path><path d="M57.6,36.4l-4.5-0.7L51,31.6c-0.2-0.4-0.6-0.6-1-0.6c-0.4,0-0.8,0.2-1,0.6l-2,4.1l-4.6,0.7c-0.4,0.1-0.8,0.4-0.9,0.8     c-0.1,0.4,0,0.8,0.3,1.1l3.3,3.2L44.3,46c-0.1,0.4,0.1,0.8,0.4,1.1c0.3,0.2,0.8,0.3,1.2,0.1l4.1-2.1l4.1,2.2     c0.2,0.1,0.3,0.1,0.5,0.1c0.2,0,0.5-0.1,0.7-0.2c0.3-0.3,0.5-0.7,0.4-1.1l-0.8-4.5l3.3-3.3c0.3-0.3,0.4-0.7,0.3-1.1     C58.4,36.8,58,36.5,57.6,36.4z"></path><path d="M34.4,36.4l-4.5-0.7l-2.1-4.2c-0.2-0.4-0.6-0.6-1-0.6c0,0,0,0,0,0c-0.4,0-0.8,0.2-1,0.6l-2,4.1l-4.6,0.7     c-0.4,0.1-0.8,0.4-0.9,0.8c-0.1,0.4,0,0.8,0.3,1.1l3.3,3.2L21,46c-0.1,0.4,0.1,0.8,0.4,1.1c0.3,0.2,0.8,0.3,1.2,0.1l4.1-2.1     l4.1,2.2c0.2,0.1,0.3,0.1,0.5,0.1c0.2,0,0.5-0.1,0.7-0.2c0.3-0.3,0.5-0.7,0.4-1.1l-0.8-4.5l3.3-3.3c0.3-0.3,0.4-0.7,0.3-1.1     C35.1,36.8,34.8,36.5,34.4,36.4z"></path></g></g></g></svg>