<svg width="24" height="24" viewBox="0 0 24 24" fill="none" xmlns="http://www.w3.org/2000/svg">
<path fill-rule="evenodd" clip-rule="evenodd" d="M11.5 16C8.46243 16 6 13.5376 6 10.5C6 7.46243 8.46243 5 11.5 5C14.5376 5 17 7.46243 17 10.5C17 13.5376 14.5376 16 11.5 16ZM4 10.5C4 6.35786 7.35786 3 11.5 3C15.6421 3 19 6.35786 19 10.5C19 12.4657 18.2438 14.2548 17.0064 15.5922L20.7071 19.2929C21.0976 19.6834 21.0976 20.3166 20.7071 20.7071C20.3166 21.0976 19.6834 21.0976 19.2929 20.7071L15.4577 16.8719C14.309 17.587 12.9527 18 11.5 18C7.35786 18 4 14.6421 4 10.5Z" fill="#333333"/>
</svg>
