<svg width="46" height="17" viewBox="0 0 46 17" fill="none" xmlns="http://www.w3.org/2000/svg">
<path d="M10.458 11.3213C10.0244 11.9424 9.41797 12.4082 8.63867 12.7188C7.86523 13.0234 6.96289 13.1758 5.93164 13.1758C4.88867 13.1758 3.96289 12.9326 3.1543 12.4463C2.3457 11.9541 1.71875 11.2568 1.27344 10.3545C0.833984 9.45215 0.608398 8.40625 0.59668 7.2168V6.10059C0.59668 4.17285 1.04492 2.67871 1.94141 1.61816C2.84375 0.557617 4.10938 0.0273438 5.73828 0.0273438C7.07422 0.0273438 8.14941 0.370117 8.96387 1.05566C9.77832 1.73535 10.2764 2.70215 10.458 3.95605H8.77051C8.4541 2.2627 7.44629 1.41602 5.74707 1.41602C4.61621 1.41602 3.75781 1.81445 3.17188 2.61133C2.5918 3.40234 2.29883 4.55078 2.29297 6.05664V7.10254C2.29297 8.53809 2.62109 9.68066 3.27734 10.5303C3.93359 11.374 4.82129 11.7959 5.94043 11.7959C6.57324 11.7959 7.12695 11.7256 7.60156 11.585C8.07617 11.4443 8.46875 11.207 8.7793 10.873V7.99902H5.81738V6.62793H10.458V11.3213ZM12.5938 8.15723C12.5938 7.22559 12.7754 6.3877 13.1387 5.64355C13.5078 4.89941 14.0176 4.3252 14.668 3.9209C15.3242 3.5166 16.0713 3.31445 16.9092 3.31445C18.2041 3.31445 19.25 3.7627 20.0469 4.65918C20.8496 5.55566 21.251 6.74805 21.251 8.23633V8.35059C21.251 9.27637 21.0723 10.1084 20.7148 10.8467C20.3633 11.5791 19.8564 12.1504 19.1943 12.5605C18.5381 12.9707 17.7822 13.1758 16.9268 13.1758C15.6377 13.1758 14.5918 12.7275 13.7891 11.8311C12.9922 10.9346 12.5938 9.74805 12.5938 8.27148V8.15723ZM14.2285 8.35059C14.2285 9.40527 14.4717 10.252 14.958 10.8906C15.4502 11.5293 16.1064 11.8486 16.9268 11.8486C17.7529 11.8486 18.4092 11.5264 18.8955 10.8818C19.3818 10.2314 19.625 9.32324 19.625 8.15723C19.625 7.11426 19.376 6.27051 18.8779 5.62598C18.3857 4.97559 17.7295 4.65039 16.9092 4.65039C16.1064 4.65039 15.459 4.96973 14.9668 5.6084C14.4746 6.24707 14.2285 7.16113 14.2285 8.35059ZM25.0566 13H23.4307V3.49023H25.0566V13ZM23.2988 0.967773C23.2988 0.704102 23.3779 0.481445 23.5361 0.299805C23.7002 0.118164 23.9404 0.0273438 24.2568 0.0273438C24.5732 0.0273438 24.8135 0.118164 24.9775 0.299805C25.1416 0.481445 25.2236 0.704102 25.2236 0.967773C25.2236 1.23145 25.1416 1.45117 24.9775 1.62695C24.8135 1.80273 24.5732 1.89062 24.2568 1.89062C23.9404 1.89062 23.7002 1.80273 23.5361 1.62695C23.3779 1.45117 23.2988 1.23145 23.2988 0.967773ZM29.2051 3.49023L29.2578 4.68555C29.9844 3.77148 30.9336 3.31445 32.1055 3.31445C34.1152 3.31445 35.1289 4.44824 35.1465 6.71582V13H33.5205V6.70703C33.5146 6.02148 33.3564 5.51465 33.0459 5.18652C32.7412 4.8584 32.2637 4.69434 31.6133 4.69434C31.0859 4.69434 30.623 4.83496 30.2246 5.11621C29.8262 5.39746 29.5156 5.7666 29.293 6.22363V13H27.667V3.49023H29.2051ZM37.2119 8.16602C37.2119 6.68359 37.5547 5.50586 38.2402 4.63281C38.9258 3.75391 39.834 3.31445 40.9648 3.31445C42.125 3.31445 43.0303 3.72461 43.6807 4.54492L43.7598 3.49023H45.2451V12.7715C45.2451 14.002 44.8789 14.9717 44.1465 15.6807C43.4199 16.3896 42.4414 16.7441 41.2109 16.7441C40.5254 16.7441 39.8545 16.5977 39.1982 16.3047C38.542 16.0117 38.041 15.6104 37.6953 15.1006L38.5391 14.125C39.2363 14.9863 40.0889 15.417 41.0967 15.417C41.8877 15.417 42.5029 15.1943 42.9424 14.749C43.3877 14.3037 43.6104 13.6768 43.6104 12.8682V12.0508C42.96 12.8008 42.0723 13.1758 40.9473 13.1758C39.834 13.1758 38.9316 12.7275 38.2402 11.8311C37.5547 10.9346 37.2119 9.71289 37.2119 8.16602ZM38.8467 8.35059C38.8467 9.42285 39.0664 10.2666 39.5059 10.8818C39.9453 11.4912 40.5605 11.7959 41.3516 11.7959C42.377 11.7959 43.1299 11.3301 43.6104 10.3984V6.05664C43.1123 5.14844 42.3652 4.69434 41.3691 4.69434C40.5781 4.69434 39.96 5.00195 39.5146 5.61719C39.0693 6.23242 38.8467 7.14355 38.8467 8.35059Z" fill="#333333"/>
</svg>
