<?xml version="1.0" encoding="UTF-8" standalone="no"?>
<svg
   xmlns:dc="http://purl.org/dc/elements/1.1/"
   xmlns:cc="http://creativecommons.org/ns#"
   xmlns:rdf="http://www.w3.org/1999/02/22-rdf-syntax-ns#"
   xmlns:svg="http://www.w3.org/2000/svg"
   xmlns="http://www.w3.org/2000/svg"
   xmlns:sodipodi="http://sodipodi.sourceforge.net/DTD/sodipodi-0.dtd"
   xmlns:inkscape="http://www.inkscape.org/namespaces/inkscape"
   inkscape:version="1.0 (4035a4fb49, 2020-05-01)"
   sodipodi:docname="group purple.svg"
   id="svg6"
   xml:space="preserve"
   enable-background="new 0 0 100 100"
   viewBox="0 0 100 100"
   y="0px"
   x="0px"
   version="1.1"
   fill="#000000"
   width="100px"
   height="100px"><metadata
     id="metadata12"><rdf:RDF><cc:Work
         rdf:about=""><dc:format>image/svg+xml</dc:format><dc:type
           rdf:resource="http://purl.org/dc/dcmitype/StillImage" /><dc:title></dc:title></cc:Work></rdf:RDF></metadata><defs
     id="defs10" /><sodipodi:namedview
     inkscape:current-layer="svg6"
     inkscape:window-maximized="1"
     inkscape:window-y="-8"
     inkscape:window-x="-8"
     inkscape:cy="50"
     inkscape:cx="50"
     inkscape:zoom="8.6"
     showgrid="false"
     id="namedview8"
     inkscape:window-height="1028"
     inkscape:window-width="1920"
     inkscape:pageshadow="2"
     inkscape:pageopacity="0"
     guidetolerance="10"
     gridtolerance="10"
     objecttolerance="10"
     borderopacity="1"
     bordercolor="#666666"
     pagecolor="#ffffff"
     inkscape:document-rotation="0" /><path
     style="stroke-width:1.05555;fill:#670864;fill-opacity:1"
     id="path2"
     d="M 50,2.5 C 23.766278,2.5 2.5,23.765222 2.5,50 2.5,76.234778 23.766278,97.5 50,97.5 76.234778,97.5 97.5,76.234778 97.5,50 97.5,23.765222 76.234778,2.5 50,2.5 Z m 17.704833,23.237 c 5.403389,0 9.788167,4.381611 9.788167,9.786056 0,5.411833 -4.384778,9.786055 -9.788167,9.786055 -5.403389,0 -9.786055,-4.375278 -9.786055,-9.786055 0.0021,-5.404445 4.382666,-9.786056 9.786055,-9.786056 z M 49.997889,38.921944 c 5.401278,0 9.792389,4.382667 9.792389,9.792389 0,5.404445 -4.391111,9.779723 -9.792389,9.779723 -5.403389,0 -9.793445,-4.375278 -9.793445,-9.779723 0,-5.409722 4.390056,-9.792389 9.793445,-9.792389 z M 32.295167,25.737 c 5.402333,0 9.785,4.381611 9.785,9.786056 0,5.411833 -4.381611,9.786055 -9.785,9.786055 -5.403389,0 -9.789223,-4.375278 -9.789223,-9.786055 C 22.504844,30.118611 26.890722,25.737 32.295167,25.737 Z M 19.125,61.077 c -2.853167,0 -5.107833,-2.326444 -5.010722,-5.181722 0,0 0.0665,-1.874667 0.471833,-3.851722 1.117833,-5.459334 3.716611,-6.841056 8.110889,-9.032389 2.234611,2.857389 5.701056,4.697222 9.598167,4.697222 2.083666,0 4.043833,-0.524611 5.768611,-1.4535 -0.172056,0.791667 -0.255445,1.617111 -0.255445,2.459444 0,1.961223 0.479223,3.806334 1.308889,5.4435 C 35.691944,55.871 32.840889,57.4195 31.126667,61.077 Z M 63.172278,74.263 H 36.830889 c -2.848945,0 -5.116278,-2.329611 -5.0255,-5.183833 0,0 0.0475,-1.685723 0.485555,-3.815834 1.107278,-5.484666 3.708167,-6.869555 8.109834,-9.058777 2.234611,2.85 5.695778,4.695111 9.597111,4.695111 3.900278,0 7.3625,-1.846167 9.598167,-4.700389 4.394277,2.191333 7.002555,3.569889 8.111944,9.039778 -0.0021,-0.0042 -0.0021,-0.0084 -0.0021,-0.01372 l 0.0053,0.02956 c 0.402166,1.974944 0.464444,3.823222 0.464444,3.823222 C 68.278033,71.933389 66.0202,74.263 63.172311,74.263 Z M 80.875,61.077 H 68.884944 c -1.717388,-3.659611 -4.572666,-5.206 -7.999,-6.919167 0.828612,-1.640333 1.308889,-3.482277 1.308889,-5.4435 0,-0.841277 -0.08233,-1.667777 -0.251222,-2.457333 1.7195,0.926778 3.679667,1.451389 5.762278,1.451389 3.896055,0 7.364611,-1.839833 9.600278,-4.697222 4.392166,2.189222 6.992,3.572 8.109833,9.032389 0.406389,1.977055 0.471833,3.851722 0.471833,3.851722 0.095,2.855278 -2.161777,5.181722 -5.012833,5.181722 z" /><path
     id="path4"
     d="M66.778,64.453c-0.001-0.006-0.002-0.011-0.003-0.016c0,0.006,0.002,0.011,0.004,0.021L66.778,64.453z" /></svg>
