<svg width="24" height="24" viewBox="0 0 24 24" fill="none" xmlns="http://www.w3.org/2000/svg">
<path d="M12 2C6.489 2 2 6.489 2 12C2 17.511 6.489 22 12 22C17.511 22 22 17.511 22 12C22 6.489 17.511 2 12 2ZM12 4C16.4301 4 20 7.56988 20 12C20 16.4301 16.4301 20 12 20C7.56988 20 4 16.4301 4 12C4 7.56988 7.56988 4 12 4Z" fill="#333333"/>
<path d="M10.9951 15.0244H13.0322V17H10.9951V15.0244ZM8.5 10.1025C8.55469 8.80371 9.00814 7.88314 9.86035 7.34082C10.3981 6.99447 11.0589 6.82129 11.8428 6.82129C12.8727 6.82129 13.7272 7.06738 14.4062 7.55957C15.0898 8.05176 15.4316 8.78092 15.4316 9.74707C15.4316 10.3395 15.2835 10.8385 14.9873 11.2441C14.8141 11.4902 14.4814 11.8047 13.9893 12.1875L13.5039 12.5635C13.2396 12.7686 13.0641 13.0078 12.9775 13.2812C12.9229 13.4544 12.8932 13.7233 12.8887 14.0879H11.043C11.0703 13.3177 11.1432 12.7868 11.2617 12.4951C11.3802 12.1989 11.6855 11.8594 12.1777 11.4766L12.6768 11.0869C12.8408 10.9639 12.973 10.8294 13.0732 10.6836C13.2555 10.4329 13.3467 10.1572 13.3467 9.85645C13.3467 9.51009 13.2441 9.19564 13.0391 8.91309C12.8385 8.62598 12.4694 8.48242 11.9316 8.48242C11.403 8.48242 11.027 8.65788 10.8037 9.00879C10.585 9.3597 10.4756 9.72428 10.4756 10.1025H8.5Z" fill="#333333"/>
</svg>
