<svg height='100px' width='100px'  fill="#B30000" xmlns="https://www.w3.org/2000/svg" data-name="Layer 1" viewBox="0 0 100 100" x="0px" y="0px"><title>Help</title><path d="M50,8A42,42,0,1,1,8,50,42,42,0,0,1,50,8m0-8a50,50,0,1,0,50,50A50,50,0,0,0,50,0Z"></path><path d="M52.53,58.84H45.67c-.17-4.59,0-9,4-12.13a35,35,0,0,1,3.87-2.43c.85-.51,1.75-.92,2.61-1.41A4.56,4.56,0,0,0,58.53,38,4.43,4.43,0,0,0,55,34.08a15,15,0,0,0-12,1.23,64,64,0,0,0-5.38,3.94c-1.95-2.32-4-4.78-6.17-7.32a25.12,25.12,0,0,1,7.32-5.62,25.87,25.87,0,0,1,21-1.09c10.82,3.9,10.71,18.14,4.23,23.1a25.19,25.19,0,0,1-2.91,1.86c-1,.6-2.14,1.07-3.18,1.66C54.35,53.85,53.6,54.82,52.53,58.84Z"></path><path d="M43.84,71.24a5.28,5.28,0,1,1,5.32,5.26A5.37,5.37,0,0,1,43.84,71.24Z"></path></svg>