<svg xmlns="http://www.w3.org/2000/svg" xmlns:xlink="https://www.w3.org/1999/xlink" width="100" height="100" viewBox="0 0 100 100"><g><circle stroke="none" fill="#FFFFFF" r="48%" cx="50%" cy="50%"></circle><g transform="translate(50 50) scale(0.69 0.69) rotate(0) translate(-50 -50)" style="fill:#D3D3D3"><svg fill="#D3D3D3" xmlns="http://www.w3.org/2000/svg" xmlns:xlink="http://www.w3.org/1999/xlink" version="1.1" x="0px" y="0px" viewBox="0 0 100 100" style="enable-background:new 0 0 100 100;" xml:space="preserve"><style type="text/css">
	.st0{fill:none;stroke:#D3D3D3;stroke-width:6;stroke-miterlimit:10;}
	.st1{fill:none;stroke:#D3D3D3;stroke-width:3;stroke-miterlimit:10;}
	.st2{fill:none;stroke:#D3D3D3;stroke-width:8;stroke-linecap:round;stroke-miterlimit:10;}
	.st3{fill:none;stroke:#D3D3D3;stroke-width:8;stroke-linecap:round;stroke-miterlimit:10;}
</style><path d="M32.6,57.8l12.1-14.6c-2.3-1.7-3.9-4.4-3.9-7.4c0-5,4.1-9.1,9.1-9.1c2.5,0,4.7,1,6.3,2.6l10.4-12.6  c-4.5-3.9-10.3-6.3-16.8-6.3c-14.1,0-25.5,11.4-25.5,25.6c0,3.7,0.8,7.1,2.1,10.3L32.6,57.8z"></path><path d="M83,13c-0.6-0.5-1.4-0.8-2.2-0.9l-55,66.4c0.2,0.7,0.6,1.4,1.3,2c0.7,0.6,1.6,0.9,2.5,0.9c1.2,0,2.3-0.5,3.1-1.4l7-8.4  l8.9,17.3c0.6,1.2,2.2,1.2,2.8,0l22-42.7c1.4-3.1,2.1-6.6,2.1-10.3c0-2.2-0.3-4.4-0.8-6.5l8.8-10.7C85,16.9,84.7,14.4,83,13z"></path></svg></g></g></svg>