<svg xmlns="http://www.w3.org/2000/svg" xmlns:xlink="https://www.w3.org/1999/xlink" width="100" height="100" viewBox="0 0 100 100"><g><circle stroke="none" fill="#FFFFFF" r="48%" cx="50%" cy="50%"></circle><g transform="translate(50 50) scale(0.69 0.69) rotate(0) translate(-50 -50)" style="fill:#CC0000"><svg fill="#CC0000" xmlns:dc="http://purl.org/dc/elements/1.1/" xmlns:cc="http://creativecommons.org/ns#" xmlns:rdf="http://www.w3.org/1999/02/22-rdf-syntax-ns#" xmlns:svg="http://www.w3.org/2000/svg" xmlns="http://www.w3.org/2000/svg" xmlns:sodipodi="http://sodipodi.sourceforge.net/DTD/sodipodi-0.dtd" xmlns:inkscape="http://www.inkscape.org/namespaces/inkscape" version="1.1" x="0px" y="0px" viewBox="0 0 100 100"><g transform="translate(0,-952.36218)"><path style="text-indent:0;text-transform:none;direction:ltr;block-progression:tb;baseline-shift:baseline;color:#000000;enable-background:accumulate;" d="m 67.000001,956.36219 c -3.0963,5.52395 -6.1263,11.00503 -9.1562,16.50041 -4.851,-4.04036 -11.0508,-6.50016 -17.8438,-6.50016 -15.4403,0 -28.000001,12.5596 -28.000001,28.00071 0,4.67502 1.2088,9.05625 3.2188,12.90655 7.713601,13.3229 15.383101,26.7075 23.062401,40.0635 0.7627,1.5063 2.8012,1.2307 3.4376,0 7.8171,-13.2738 15.1675,-26.8488 23.0624,-40.0635 C 66.7911,1003.4194 68,999.03817 68,994.36315 l 20,0 C 80.9057,981.64643 74.1712,969.03581 67,956.36219 z m 0,8.09395 14,25.90691 -28,0 14,-25.90691 z m 0,4.90638 c -1.1046,0 -2,0.89542 -2,2.00005 l 0,10.00025 c 0,1.10463 0.8954,2.00005 2,2.00005 1.1046,0 2,-0.89542 2,-2.00005 l 0,-10.00025 c 0,-1.10463 -0.8954,-2.00005 -2,-2.00005 z m -27,1.00002 c 6.1097,0 11.676,2.25437 15.9062,6.00015 -1.8504,3.36126 -3.7069,6.75298 -5.5624,10.12526 -2.3802,-3.11442 -6.1401,-5.12513 -10.3438,-5.12513 -7.156,0 -13,5.84394 -13,13.00033 0,7.15645 5.844,13.00035 13,13.00035 7.156,0 13,-5.8439 13,-13.00035 l 11,0 c 0,3.98121 -1.043,7.73245 -2.7812,11.06275 -6.9821,12.2452 -14.1487,24.6483 -21.2188,36.9385 -6.891,-12.3884 -14.4738,-24.5638 -21.218801,-36.9385 C 17.043,1002.0956 16,998.34436 16,994.36315 16,981.08391 26.721501,970.36254 40.000001,970.36254 z m 27,14.00035 c -1.3807,0 -2.5,1.11933 -2.5,2.50007 0,1.38073 1.1193,2.50006 2.5,2.50006 1.3807,0 2.5,-1.11933 2.5,-2.50006 0,-1.38074 -1.1193,-2.50007 -2.5,-2.50007 z m -27,1.00003 c 3.614,0 6.6896,2.10446 8.125,5.15638 -0.7081,1.28514 -1.4133,2.55506 -2.125,3.84385 l 3,0 c 0,4.99451 -4.0057,9.00025 -9,9.00025 -4.9942,0 -9,-4.00574 -9,-9.00025 0,-4.99452 4.0058,-9.00023 9,-9.00023 z" fill="#CC0000" fill-opacity="1" stroke="none" marker="none" visibility="visible" display="inline" overflow="visible"></path></g></svg></g></g></svg>