<?xml version="1.0" encoding="UTF-8" standalone="no"?>
<svg
   xmlns:dc="http://purl.org/dc/elements/1.1/"
   xmlns:cc="http://creativecommons.org/ns#"
   xmlns:rdf="http://www.w3.org/1999/02/22-rdf-syntax-ns#"
   xmlns:svg="http://www.w3.org/2000/svg"
   xmlns="http://www.w3.org/2000/svg"
   xmlns:sodipodi="http://sodipodi.sourceforge.net/DTD/sodipodi-0.dtd"
   xmlns:inkscape="http://www.inkscape.org/namespaces/inkscape"
   sodipodi:docname="hrbutton.svg"
   inkscape:version="1.0 (4035a4fb49, 2020-05-01)"
   id="svg861"
   version="1.1"
   viewBox="0 0 90.561307 27.92131"
   height="105.52936"
   width="342.27896">
  <defs
     id="defs855">
    <clipPath
       id="clipPath2131-9"
       clipPathUnits="userSpaceOnUse">
      <path
         id="path2129-7"
         d="M 0,595.276 H 841.89 V 0 H 0 Z" />
    </clipPath>
  </defs>
  <sodipodi:namedview
     inkscape:window-maximized="1"
     inkscape:window-y="-8"
     inkscape:window-x="-8"
     inkscape:window-height="1028"
     inkscape:window-width="1920"
     units="px"
     showgrid="false"
     inkscape:document-rotation="0"
     inkscape:current-layer="layer1"
     inkscape:document-units="mm"
     inkscape:cy="134.53363"
     inkscape:cx="213.833"
     inkscape:zoom="2.0129211"
     inkscape:pageshadow="2"
     inkscape:pageopacity="0.0"
     borderopacity="1.0"
     bordercolor="#666666"
     pagecolor="#ffffff"
     id="base" />
  <metadata
     id="metadata858">
    <rdf:RDF>
      <cc:Work
         rdf:about="">
        <dc:format>image/svg+xml</dc:format>
        <dc:type
           rdf:resource="http://purl.org/dc/dcmitype/StillImage" />
        <dc:title></dc:title>
      </cc:Work>
    </rdf:RDF>
  </metadata>
  <g
     id="layer1"
     inkscape:groupmode="layer"
     inkscape:label="Layer 1"
     transform="translate(2.7870441,0.6798547)">
    <g
       id="g953">
      <g
         transform="matrix(0.11579955,0,0,-0.11579955,56.839256,11.882874)"
         id="g2133">
        <path
           id="path2135"
           style="fill:#ff0000;fill-opacity:1;fill-rule:nonzero;stroke:none"
           d="m 0,0 c 6.421,-6.421 6.421,-16.83 0,-23.252 l -93.004,-93.004 c -6.42,-6.42 -16.83,-6.42 -23.251,0 l -93.004,93.004 c -6.42,6.421 -6.42,16.831 0,23.251 l 93.004,93.004 c 6.421,6.421 16.831,6.421 23.251,0.001 z" />
      </g>
      <g
         style="fill:#ffffff;fill-opacity:1"
         transform="matrix(0.11579955,0,0,-0.11579955,47.977984,7.7725572)"
         id="g2137">
        <path
           id="path2139"
           style="fill:#ffffff;fill-opacity:1;fill-rule:nonzero;stroke:none"
           d="M 0,0 C 1.538,-1.538 2.755,-2.841 3.652,-3.908 4.55,-4.978 5.19,-5.874 5.575,-6.601 5.959,-7.326 6.119,-7.936 6.056,-8.427 5.991,-8.919 5.745,-9.378 5.319,-9.804 4.977,-10.146 4.518,-10.457 3.94,-10.733 c -0.576,-0.278 -1.217,-0.599 -1.921,-0.961 -0.705,-0.365 -1.452,-0.791 -2.244,-1.283 -0.79,-0.491 -1.57,-1.121 -2.338,-1.889 -0.898,-0.898 -1.612,-1.977 -2.147,-3.237 -0.533,-1.261 -0.896,-2.755 -1.089,-4.485 -0.193,-1.73 -0.172,-3.76 0.064,-6.089 0.234,-2.328 0.694,-5.03 1.378,-8.106 l 35.628,-35.629 c 0.428,-0.428 0.674,-0.93 0.739,-1.506 0.063,-0.577 -0.109,-1.282 -0.514,-2.115 -0.405,-0.833 -1.068,-1.815 -1.986,-2.947 -0.92,-1.131 -2.169,-2.49 -3.749,-4.07 -1.581,-1.581 -2.939,-2.829 -4.07,-3.749 -1.131,-0.917 -2.114,-1.581 -2.947,-1.986 -0.834,-0.406 -1.538,-0.577 -2.114,-0.513 -0.577,0.064 -1.079,0.31 -1.507,0.737 l -57.161,57.162 c -0.426,0.425 -0.694,0.907 -0.801,1.441 -0.106,0.534 0.012,1.184 0.353,1.954 0.34,0.769 0.897,1.646 1.666,2.629 0.769,0.98 1.815,2.136 3.139,3.46 1.368,1.367 2.554,2.444 3.557,3.236 1.005,0.79 1.858,1.324 2.564,1.602 0.706,0.275 1.324,0.362 1.858,0.256 0.534,-0.107 1.015,-0.375 1.441,-0.801 l 7.114,-7.113 c -0.641,3.631 -0.993,6.802 -1.057,9.515 -0.065,2.713 0.097,5.074 0.48,7.082 0.384,2.007 1.015,3.769 1.891,5.287 0.875,1.516 1.911,2.872 3.107,4.069 0.555,0.554 1.186,1.121 1.892,1.698 0.704,0.577 1.474,1.132 2.307,1.666 0.832,0.533 1.601,0.961 2.305,1.282 0.706,0.32 1.284,0.49 1.732,0.513 0.447,0.019 0.853,-0.043 1.217,-0.193 0.362,-0.15 0.811,-0.406 1.346,-0.769 C -5.395,5.053 -4.656,4.443 -3.717,3.59 -2.777,2.734 -1.538,1.538 0,0" />
      </g>
      <g
         transform="matrix(0.11579955,0,0,-0.11579955,41.408851,9.26167)"
         id="g2141">
        <path
           id="path2143"
           style="fill:#ff0000;fill-opacity:1;fill-rule:nonzero;stroke:none"
           d="m 0,0 30.166,8.084 7.698,-28.73 -30.167,-8.083 z" />
      </g>
      <g
         style="font-variant:normal;font-weight:bold;font-stretch:normal;font-size:21.4925px;font-family:Calibri;-inkscape-font-specification:Calibri-Bold;writing-mode:lr-tb;fill:#ffffff;fill-opacity:1;fill-rule:nonzero;stroke:none;stroke-width:0.1158"
         id="text2147"
         transform="rotate(-45)"
         aria-label="h">
        <path
           id="path849"
           style="fill:#ffffff;fill-opacity:1;stroke-width:0.1158"
           d="m 25.056393,47.907782 q 0,0.104944 -0.06297,0.188899 -0.06297,0.07346 -0.209888,0.125933 -0.146921,0.05247 -0.409281,0.07346 -0.251865,0.03148 -0.629663,0.03148 -0.388292,0 -0.650652,-0.03148 -0.251865,-0.02099 -0.398786,-0.07346 -0.146922,-0.05247 -0.209888,-0.125933 -0.06297,-0.08395 -0.06297,-0.188899 V 42.56614 q 0,-0.682135 -0.104944,-1.070427 -0.09445,-0.388292 -0.283349,-0.661146 -0.188899,-0.283349 -0.493236,-0.43027 -0.293842,-0.157416 -0.692629,-0.157416 -0.503731,0 -1.017955,0.367304 -0.514225,0.367303 -1.070428,1.070427 v 6.22317 q 0,0.104944 -0.06297,0.188899 -0.06297,0.07346 -0.220382,0.125933 -0.146921,0.05247 -0.398787,0.07346 -0.251865,0.03148 -0.640157,0.03148 -0.388292,0 -0.640158,-0.03148 -0.251865,-0.02099 -0.409281,-0.07346 -0.146921,-0.05247 -0.209887,-0.125933 -0.06297,-0.08395 -0.06297,-0.188899 V 34.107666 q 0,-0.104944 0.06297,-0.188899 0.06297,-0.08396 0.209887,-0.136427 0.157416,-0.06297 0.409281,-0.09445 0.251866,-0.03148 0.640158,-0.03148 0.388292,0 0.640157,0.03148 0.251866,0.03148 0.398787,0.09445 0.157416,0.05247 0.220382,0.136427 0.06297,0.08395 0.06297,0.188899 v 5.173732 q 0.682135,-0.671641 1.385259,-0.996967 0.713618,-0.33582 1.479708,-0.33582 0.954989,0 1.605641,0.314831 0.661147,0.314832 1.059933,0.86054 0.409281,0.545708 0.587686,1.280315 0.178404,0.724112 0.178404,1.763057 z" />
      </g>
      <g
         style="fill:#ffffff;fill-opacity:1"
         transform="matrix(0.11579955,0,0,-0.11579955,45.761511,2.9133883)"
         id="g2149">
        <path
           id="path2151"
           style="fill:#ffffff;fill-opacity:1;fill-rule:nonzero;stroke:none"
           d="m 0,0 c 4.815,-4.814 4.815,-12.623 0,-17.438 -4.815,-4.816 -12.623,-4.815 -17.438,0 -4.816,4.816 -4.816,12.623 0,17.438 C -12.623,4.815 -4.815,4.815 0,0" />
      </g>
      <path
         d="m 5.8096879,17.412583 q 0,0.06785 -0.047496,0.122132 -0.040711,0.05428 -0.1424873,0.08821 -0.1017766,0.03393 -0.2714043,0.05428 -0.1696277,0.02036 -0.4274617,0.02036 -0.2646192,0 -0.441032,-0.02036 -0.1696277,-0.02036 -0.2714043,-0.05428 -0.094991,-0.03392 -0.1424873,-0.08821 -0.040711,-0.05428 -0.040711,-0.122132 V 13.863972 H 0.74121283 v 3.548611 q 0,0.06785 -0.040711,0.122132 -0.040711,0.05428 -0.1424872,0.08821 -0.1017766,0.03393 -0.2714043,0.05428 -0.1696277,0.02036 -0.4342469,0.02036 -0.2578341,0 -0.4342469,-0.02036 -0.1696276,-0.02036 -0.2714043,-0.05428 -0.1017766,-0.03392 -0.14927233,-0.08821 -0.040711,-0.05428 -0.040711,-0.122132 V 9.121182 q 0,-0.067851 0.040711,-0.1221319 0.047496,-0.054281 0.14927233,-0.088206 0.1017767,-0.033926 0.2714043,-0.054281 0.1764128,-0.020355 0.4342469,-0.020355 0.2646192,0 0.4342469,0.020355 0.1696277,0.020355 0.2714043,0.054281 0.1017766,0.033926 0.1424872,0.088206 0.040711,0.054281 0.040711,0.1221319 v 3.222926 H 4.0252047 V 9.121182 q 0,-0.067851 0.040711,-0.1221319 0.047496,-0.054281 0.1424873,-0.088206 0.1017766,-0.033926 0.2714043,-0.054281 0.1764128,-0.020355 0.441032,-0.020355 0.257834,0 0.4274617,0.020355 0.1696277,0.020355 0.2714043,0.054281 0.1017766,0.033926 0.1424873,0.088206 0.047496,0.054281 0.047496,0.1221319 z"
         style="font-variant:normal;font-weight:bold;font-stretch:normal;font-size:13.8959px;font-family:Calibri;-inkscape-font-specification:Calibri-Bold;writing-mode:lr-tb;fill:#000000;fill-opacity:1;fill-rule:nonzero;stroke:none;stroke-width:0.1158"
         id="path852" />
      <path
         d="m 16.937361,13.165106 q 0,1.092402 -0.271405,1.954111 -0.271404,0.861708 -0.807428,1.465583 -0.536023,0.597089 -1.329881,0.91599 -0.787072,0.312114 -1.825193,0.312114 -1.024552,0 -1.791269,-0.264619 -0.759932,-0.271404 -1.2688147,-0.820998 -0.508883,-0.549593 -0.766717,-1.397732 -0.251049,-0.848138 -0.251049,-2.008392 0,-1.065261 0.271404,-1.9134 0.271405,-0.854923 0.807428,-1.4520128 0.5360237,-0.5970894 1.3230957,-0.9159895 0.793858,-0.3189 1.838764,-0.3189 0.997411,0 1.757343,0.2646192 0.766717,0.2646191 1.2756,0.8142128 0.515668,0.5495933 0.773502,1.3909473 0.26462,0.834568 0.26462,1.974466 z m -1.87269,0.09499 q 0,-0.69208 -0.108562,-1.255244 -0.108561,-0.569949 -0.373181,-0.970271 -0.257834,-0.407106 -0.692081,-0.62423 -0.434246,-0.223908 -1.085617,-0.223908 -0.658155,0 -1.099187,0.251049 -0.441032,0.244264 -0.712436,0.658155 -0.271405,0.413892 -0.386752,0.970271 -0.108561,0.549593 -0.108561,1.167038 0,0.719221 0.108561,1.295956 0.108562,0.569949 0.366396,0.977055 0.257834,0.407106 0.692081,0.62423 0.434247,0.210338 1.092402,0.210338 0.658156,0 1.099188,-0.244264 0.441032,-0.244264 0.712436,-0.66494 0.271404,-0.420677 0.379966,-0.977056 0.115347,-0.563164 0.115347,-1.194179 z"
         style="font-variant:normal;font-weight:bold;font-stretch:normal;font-size:13.8959px;font-family:Calibri;-inkscape-font-specification:Calibri-Bold;writing-mode:lr-tb;fill:#000000;fill-opacity:1;fill-rule:nonzero;stroke:none;stroke-width:0.1158"
         id="path854" />
      <path
         d="m 29.716636,17.412583 q 0,0.06785 -0.04071,0.122132 -0.03392,0.05428 -0.135702,0.08821 -0.09499,0.03393 -0.257834,0.05428 -0.162842,0.02036 -0.413891,0.02036 -0.244264,0 -0.407107,-0.02036 -0.162842,-0.02036 -0.257834,-0.05428 -0.09499,-0.03392 -0.135702,-0.08821 -0.04071,-0.05428 -0.04071,-0.122132 v -7.144718 h -0.01357 l -2.544415,7.137933 q -0.02714,0.08821 -0.08821,0.149272 -0.06107,0.05428 -0.169628,0.08821 -0.101777,0.03392 -0.264619,0.04071 -0.162843,0.01357 -0.393537,0.01357 -0.230693,0 -0.393536,-0.02036 -0.162842,-0.01357 -0.271404,-0.0475 -0.101777,-0.04071 -0.162843,-0.09499 -0.06107,-0.05428 -0.08142,-0.128917 L 21.187755,10.26786 h -0.01357 v 7.144718 q 0,0.06785 -0.04071,0.122132 -0.03392,0.05428 -0.135702,0.08821 -0.101776,0.03393 -0.264619,0.05428 -0.156057,0.02036 -0.407106,0.02036 -0.244264,0 -0.407107,-0.02036 Q 19.756099,17.65684 19.654322,17.62292 19.559332,17.589 19.51862,17.53471 19.48469,17.48043 19.48469,17.412578 V 9.5893544 q 0,-0.3460405 0.183198,-0.5292384 0.183198,-0.1831979 0.488528,-0.1831979 h 1.167038 q 0.312115,0 0.536024,0.054281 0.223908,0.047496 0.386751,0.1696277 0.162843,0.1153468 0.271404,0.3121149 0.108562,0.189983 0.189983,0.4749575 l 1.89983,5.2313178 h 0.02714 l 1.967681,-5.2177476 q 0.08821,-0.2849745 0.189983,-0.4817426 0.108562,-0.1967681 0.244264,-0.3189 0.142487,-0.122132 0.33247,-0.1696277 0.189983,-0.054281 0.441032,-0.054281 h 1.200964 q 0.183198,0 0.312115,0.047496 0.135702,0.047496 0.217123,0.1424872 0.08821,0.088206 0.128917,0.2239086 0.0475,0.128917 0.0475,0.2985447 z"
         style="font-variant:normal;font-weight:bold;font-stretch:normal;font-size:13.8959px;font-family:Calibri;-inkscape-font-specification:Calibri-Bold;writing-mode:lr-tb;fill:#000000;fill-opacity:1;fill-rule:nonzero;stroke:none;stroke-width:0.1158"
         id="path856" />
      <path
         d="m 66.407808,17.426153 q 0,0.07464 -0.02714,0.128917 -0.02714,0.0475 -0.128917,0.08142 -0.101776,0.03392 -0.298544,0.04749 -0.196769,0.01357 -0.536024,0.01357 -0.284974,0 -0.454602,-0.01357 -0.169628,-0.01357 -0.271404,-0.04749 -0.09499,-0.04071 -0.135703,-0.09499 -0.04071,-0.06107 -0.06785,-0.142487 L 63.70055,15.438117 q -0.142487,-0.33247 -0.278189,-0.590304 -0.135703,-0.257835 -0.30533,-0.427462 -0.162843,-0.176413 -0.379966,-0.264619 -0.217124,-0.08821 -0.502098,-0.08821 h -0.556379 v 3.345058 q 0,0.06785 -0.0475,0.122132 -0.04071,0.05428 -0.142487,0.08821 -0.101777,0.03393 -0.271404,0.05428 -0.169628,0.02036 -0.434247,0.02036 -0.257834,0 -0.434247,-0.02036 -0.169628,-0.02036 -0.271404,-0.05428 -0.101777,-0.03392 -0.142488,-0.08821 -0.04071,-0.05428 -0.04071,-0.122132 V 9.440082 q 0,-0.2985447 0.149272,-0.4274617 0.156058,-0.1357022 0.379966,-0.1357022 h 2.273011 q 0.346041,0 0.569949,0.01357 0.223909,0.01357 0.407107,0.033925 0.529238,0.074636 0.949915,0.2578341 0.427461,0.1831979 0.719221,0.4817426 0.298545,0.2917596 0.454602,0.6988662 0.156058,0.400321 0.156058,0.922774 0,0.441032 -0.115347,0.807428 -0.108562,0.359611 -0.325685,0.644585 -0.217124,0.284975 -0.536024,0.495313 -0.3189,0.210338 -0.726006,0.339255 0.196768,0.09499 0.366395,0.230694 0.176413,0.135702 0.325686,0.33247 0.156057,0.189983 0.291759,0.441032 0.135702,0.244264 0.264619,0.556379 l 0.739577,1.730202 q 0.101777,0.257835 0.135702,0.379966 0.03393,0.115347 0.03393,0.183199 z m -2.300152,-5.957324 q 0,-0.434247 -0.196768,-0.732791 -0.196768,-0.298545 -0.644585,-0.420677 -0.135702,-0.03393 -0.312115,-0.05428 -0.169628,-0.02036 -0.474957,-0.02036 h -0.800643 v 2.490134 h 0.909204 q 0.379966,0 0.664941,-0.08821 0.284974,-0.09499 0.474957,-0.257834 0.189983,-0.169628 0.284975,-0.400322 0.09499,-0.230693 0.09499,-0.515668 z"
         style="font-variant:normal;font-weight:bold;font-stretch:normal;font-size:13.8959px;font-family:Calibri;-inkscape-font-specification:Calibri-Bold;writing-mode:lr-tb;fill:#000000;fill-opacity:1;fill-rule:nonzero;stroke:none;stroke-width:0.1158"
         id="path858" />
      <g
         style="font-variant:normal;font-weight:bold;font-stretch:normal;font-size:13.8959px;font-family:Calibri;-inkscape-font-specification:Calibri-Bold;writing-mode:lr-tb;fill:#000000;fill-opacity:1;fill-rule:nonzero;stroke:none;stroke-width:0.1158"
         id="text2159"
         aria-label="E">
        <path
           id="path861"
           style="stroke-width:0.1158"
           d="m 75.027287,16.957981 q 0,0.196768 -0.02036,0.33247 -0.01357,0.128917 -0.04749,0.210339 -0.03393,0.08142 -0.08821,0.122131 -0.04749,0.03393 -0.108561,0.03393 h -4.41032 q -0.223909,0 -0.379966,-0.128917 -0.149273,-0.135702 -0.149273,-0.434247 V 9.440082 q 0,-0.2985447 0.149273,-0.4274617 0.156057,-0.1357022 0.379966,-0.1357022 h 4.383179 q 0.06107,0 0.108562,0.033926 0.0475,0.033926 0.08142,0.1221319 0.03393,0.081421 0.0475,0.2171234 0.02035,0.1289171 0.02035,0.3324703 0,0.189983 -0.02035,0.3256852 -0.01357,0.1289161 -0.0475,0.2103381 -0.03392,0.08142 -0.08142,0.122132 -0.0475,0.03392 -0.108562,0.03392 h -3.134719 v 2.144094 h 2.652977 q 0.06107,0 0.108561,0.04071 0.05428,0.03392 0.08821,0.115347 0.03392,0.07464 0.04749,0.210338 0.02036,0.128917 0.02036,0.3189 0,0.196768 -0.02036,0.325685 -0.01357,0.128917 -0.04749,0.210338 -0.03393,0.07464 -0.08821,0.108562 -0.0475,0.03393 -0.108561,0.03393 h -2.652977 v 2.476564 h 3.16186 q 0.06107,0 0.108561,0.04071 0.05428,0.03392 0.08821,0.115346 0.03392,0.08142 0.04749,0.217124 0.02036,0.128917 0.02036,0.325685 z" />
      </g>
      <g
         style="font-variant:normal;font-weight:bold;font-stretch:normal;font-size:13.8959px;font-family:Calibri;-inkscape-font-specification:Calibri-Bold;writing-mode:lr-tb;fill:#000000;fill-opacity:1;fill-rule:nonzero;stroke:none;stroke-width:0.1158"
         id="text2163"
         aria-label="D">
        <path
           id="path864"
           style="stroke-width:0.1158"
           d="m 85.98978,13.137966 q 0,1.207749 -0.3189,2.069457 -0.312115,0.854924 -0.902419,1.397732 -0.590304,0.542809 -1.438443,0.800643 -0.841353,0.251049 -2.008391,0.251049 h -2.096599 q -0.223908,0 -0.379966,-0.128917 Q 78.69579,17.392228 78.69579,17.093683 V 9.440082 q 0,-0.2985447 0.149272,-0.4274617 0.156058,-0.1357022 0.379966,-0.1357022 h 2.252656 q 1.173824,0 1.988037,0.2781894 0.820998,0.2714043 1.377376,0.8142129 0.563164,0.5360236 0.854924,1.3298806 0.291759,0.793858 0.291759,1.838765 z m -1.845549,0.06106 q 0,-0.624229 -0.149272,-1.160253 -0.142487,-0.536023 -0.468172,-0.92956 -0.318901,-0.393536 -0.827784,-0.610659 -0.502098,-0.223909 -1.323096,-0.223909 h -0.902419 v 5.970895 h 0.92956 q 0.732792,0 1.234889,-0.189983 0.502098,-0.189983 0.834569,-0.569949 0.339255,-0.386751 0.502098,-0.9567 0.169627,-0.569949 0.169627,-1.329882 z" />
      </g>
    </g>
    <g
       transform="translate(-37.325506,9.5846031)"
       style="font-variant:normal;font-weight:bold;font-stretch:normal;font-size:13.8959px;font-family:Calibri;-inkscape-font-specification:Calibri-Bold;writing-mode:lr-tb;fill:#000000;fill-opacity:1;fill-rule:nonzero;stroke:none;stroke-width:0.1158"
       id="text2159-8"
       aria-label="E" />
  </g>
</svg>
