<svg height='100px' width='100px'  fill="#B634FF" xmlns="https://www.w3.org/2000/svg" xmlns:xlink="http://www.w3.org/1999/xlink" version="1.1" x="0px" y="0px" viewBox="0 0 100 100" style="enable-background:new 0 0 100 100;" xml:space="preserve"><g><g><path d="M98.3,48.1c-0.9-1-21.9-23.9-48.3-23.9S2.6,47.1,1.7,48.1c-1,1.1-1,2.7,0,3.8c0.9,1,21.9,23.9,48.3,23.9    s47.4-22.9,48.3-23.9C99.2,50.8,99.2,49.2,98.3,48.1z M50,70.1c-11.1,0-20.1-9-20.1-20.1s9-20.1,20.1-20.1s20.1,9,20.1,20.1    S61.1,70.1,50,70.1z"></path></g></g><path d="M50,38c-6.6,0-12,5.4-12,12c0,6.6,5.4,12,12,12s12-5.4,12-12C62,43.4,56.6,38,50,38z M56,49c-2.2,0-4-1.8-4-4  c0-2.2,1.8-4,4-4s4,1.8,4,4C60,47.2,58.2,49,56,49z"></path></svg>