<svg width="24" height="24" viewBox="0 0 24 24" fill="none" xmlns="http://www.w3.org/2000/svg">
<g clip-path="url(#clip0)">
<path d="M1.75001 12.6207C1.51224 12.3271 1.31845 12.0741 1.173 11.8786C1.27002 11.7365 1.39578 11.5636 1.55098 11.3642C2.0994 10.6597 2.95309 9.70377 4.024 8.74506C6.20201 6.79525 9.09165 5 12.0298 5C14.9583 5 17.7198 6.78506 19.8376 8.73557C20.8787 9.69437 21.7242 10.6563 22.3096 11.3793C22.5007 11.6154 22.6635 11.8252 22.7955 12C22.6635 12.1748 22.5007 12.3846 22.3096 12.6207C21.7242 13.3437 20.8787 14.3056 19.8376 15.2644C17.7198 17.2149 14.9583 19 12.0298 19C9.10129 19 6.3398 17.2149 4.22196 15.2644C3.1809 14.3056 2.33536 13.3437 1.75001 12.6207Z" stroke="#B2B2B2" stroke-width="2"/>
<mask id="path-2-inside-1" fill="white">
<path d="M16 12C16 14.2091 14.2091 16 12 16C9.79086 16 8 14.2091 8 12C8 9.79086 9.79086 8 12 8C14.2091 8 16 9.79086 16 12Z"/>
</mask>
<path d="M14 12C14 13.1046 13.1046 14 12 14V18C15.3137 18 18 15.3137 18 12H14ZM12 14C10.8954 14 10 13.1046 10 12H6C6 15.3137 8.68629 18 12 18V14ZM10 12C10 10.8954 10.8954 10 12 10V6C8.68629 6 6 8.68629 6 12H10ZM12 10C13.1046 10 14 10.8954 14 12H18C18 8.68629 15.3137 6 12 6V10Z" fill="#B2B2B2" mask="url(#path-2-inside-1)"/>
</g>
<defs>
<clipPath id="clip0">
<rect width="24" height="24" fill="white"/>
</clipPath>
</defs>
</svg>
