<svg width="21" height="21" viewBox="0 0 21 21" fill="none" xmlns="http://www.w3.org/2000/svg">
<path d="M3.02394 7.94373C1.8192 7.93955 0.85 8.95213 0.85 10.1866V17.401C0.85 18.6357 1.81934 19.6479 3.02367 19.6479H4.24485C4.74492 19.6479 5.20746 19.4724 5.5743 19.176C6.10988 19.7714 6.87549 20.15 7.72618 20.15H15.6503C16.5976 20.15 17.399 19.8804 17.9928 19.3735C18.5866 18.8665 18.96 18.1329 19.0709 17.2287L20.0551 10.8244L20.0552 10.824L20.1094 10.479L20.1097 10.4772C20.1336 10.3117 20.15 10.1395 20.15 9.96564V9.96525C20.1459 8.3614 18.8822 7.04393 17.3212 7.04393H13.5595V4.4142C13.5595 3.05383 13.1673 2.03158 12.3564 1.4185C11.7218 0.936094 10.9783 0.834225 10.3956 0.851861C9.81934 0.869303 9.38396 1.00396 9.33044 1.0221C8.99034 1.13199 8.76247 1.46112 8.76247 1.82326V5.17742C8.76247 6.35345 8.09726 7.15037 7.39926 7.66467C6.69952 8.18027 5.98392 8.39773 5.93514 8.41078L5.91937 8.41499L3.02367 8.09373M3.02394 7.94373C3.02403 7.94373 3.02412 7.94373 3.02421 7.94373L3.02367 8.09373M3.02394 7.94373H3.02367V8.09373M3.02394 7.94373H4.24485C4.7892 7.94373 5.28802 8.15229 5.67085 8.49808M3.02367 8.09373H4.24485C4.77984 8.09373 5.26831 8.31065 5.63273 8.66816M5.67085 8.49808L5.58642 8.52549L5.63273 8.66816M5.67085 8.49808L5.89436 8.42553M5.67085 8.49808C5.69357 8.5186 5.71589 8.53961 5.73777 8.56108L5.63273 8.66816M5.63273 8.66816L5.89436 8.42553M5.89436 8.42553C5.88215 8.43124 5.86398 8.44151 5.84657 8.45955L5.9545 8.56372L5.915 8.44203L5.90819 8.42105L5.90701 8.42143C5.91496 8.41756 5.92272 8.41506 5.92343 8.41486C5.92372 8.41477 5.9228 8.41509 5.92015 8.41587C5.91924 8.41614 5.91702 8.41679 5.91394 8.4178L5.90683 8.42149L5.89436 8.42553ZM5.47672 19.062C5.51568 19.0306 5.5535 18.9978 5.59008 18.9636C5.62165 19.0025 5.65419 19.0406 5.68767 19.0777L5.47672 19.062ZM17.4598 16.9846L17.459 16.9898C17.4584 16.9923 17.4578 16.9955 17.4572 16.9987C17.4563 17.0038 17.4552 17.0107 17.4546 17.0189C17.4312 17.2166 17.386 17.5749 17.1526 17.8866C16.9243 18.1915 16.496 18.4762 15.6503 18.4762H7.72618C7.01151 18.4762 6.41852 17.8696 6.41852 17.1158V10.1866C6.41852 10.1285 6.41571 10.0711 6.41101 10.0143C6.61839 9.9504 7.57131 9.63145 8.49246 8.91351C9.45498 8.16332 10.3922 6.96889 10.3922 5.1734V2.52827C10.7354 2.51032 11.1211 2.56043 11.3909 2.76936L11.3911 2.76949C11.7299 3.0311 11.9298 3.56041 11.9298 4.4142V7.88485C11.9298 8.34424 12.2905 8.72577 12.7466 8.72577H17.3212C17.9774 8.72577 18.5164 9.2799 18.5164 9.96965C18.5164 10.0491 18.5095 10.1341 18.4984 10.222L17.4598 16.9846ZM4.78879 17.405C4.78879 17.7249 4.54083 17.9741 4.24485 17.9741H3.02367C2.72769 17.9741 2.47973 17.7249 2.47973 17.405V10.1866C2.47973 9.86667 2.72769 9.61753 3.02367 9.61753H4.24485C4.54083 9.61753 4.78879 9.86667 4.78879 10.1866V17.405Z" fill="#0000ff" stroke="#0000ff" stroke-width="0.3"/>
</svg>
