<?xml version="1.0" encoding="UTF-8" standalone="no"?>
<!DOCTYPE svg PUBLIC "-//W3C//DTD SVG 20010904//EN" "http://www.w3.org/TR/2001/REC-SVG-20010904/DTD/svg10.dtd">
<svg version="1.0" xmlns="http://www.w3.org/2000/svg" width="457.000000pt" height="457.000000pt" viewBox="0 0 457.000000 457.000000" preserveAspectRatio="xMidYMid meet">
<metadata>
Created by potrace 1.11, written by Peter Selinger 2001-2013
</metadata>
<g transform="translate(0.000000,457.000000) scale(0.100000,-0.100000)" fill="#000000" stroke="none">
<path d="M2190 4554 c-30 -8 -77 -30 -105 -49 -27 -19 -496 -481 -1041 -1027 -1115 -1118 -1038 -1029 -1039 -1188 0 -159 -87 -60 1053 -1202 733 -734 1030 -1025 1066 -1045 47 -26 60 -28 156 -28 96 0 109 2 156 28 36 20 333 311 1066 1045 1140 1142 1053 1043 1053 1202 -1 159 76 70 -1039 1188 -545 546 -1013 1008 -1041 1027 -51 35 -145 66 -200 64 -16 0 -55 -7 -85 -15z m180 -349 c105 -37 170 -130 170 -244 0 -83 -22 -133 -83 -188 -43 -40 -121 -73 -172 -73 -59 0 -131 33 -181 84 -58 57 -74 98 -74 187 0 169 177 292 340 234z m463 -905 c123 -118 160 -167 155 -206 -2 -23 -16 -35 -75 -69 -92 -51 -116 -75 -143 -138 -27 -61 -30 -175 -10 -302 l13 -80 384 -386 384 -386 -15 -38 c-20 -46 -57 -93 -138 -172 -78 -76 -133 -113 -167 -113 -20 0 -103 77 -411 384 -400 399 -464 453 -561 476 -121 29 -239 -34 -298 -160 -23 -49 -26 -70 -29 -204 l-4 -148 406 -407 c323 -323 406 -412 406 -432 0 -38 -50 -107 -146 -198 -85 -82 -153 -124 -183 -114 -25 9 -1781 1765 -1792 1792 -13 34 17 91 91 173 82 90 173 158 213 158 28 0 69 -37 368 -336 l336 -336 6 88 c16 257 150 467 370 583 115 60 275 76 386 36 l42 -14 -8 62 c-4 34 -8 114 -7 177 1 158 21 209 118 305 77 77 123 104 173 105 28 0 48 -15 136 -100z"/>
</g>
</svg>