<svg height='100px' width='100px'  fill="#666666" xmlns="http://www.w3.org/2000/svg" xmlns:xlink="http://www.w3.org/1999/xlink" version="1.1" x="0px" y="0px" viewBox="0 0 48 48" enable-background="new 0 0 48 48" xml:space="preserve"><g><path d="M24,11.8c-6.7,0-12.2,5.5-12.2,12.2S17.3,36.2,24,36.2S36.2,30.7,36.2,24S30.7,11.8,24,11.8z M24,34.2   c-5.6,0-10.2-4.6-10.2-10.2c0-5.6,4.6-10.2,10.2-10.2S34.2,18.4,34.2,24C34.2,29.6,29.6,34.2,24,34.2z"></path><path d="M47.2,19.7l-5.8-1c-0.3-1.1-0.8-2.1-1.3-3.1l3.3-4.8c0.3-0.4,0.2-0.9-0.1-1.3l-4.8-4.8c-0.3-0.3-0.9-0.4-1.3-0.1l-4.8,3.3   c-1-0.5-2-1-3.1-1.3l-1-5.8c-0.1-0.5-0.5-0.8-1-0.8h-6.7c-0.5,0-0.9,0.3-1,0.8l-1,5.8c-1.1,0.3-2.1,0.8-3.1,1.3l-4.8-3.3   c-0.4-0.3-0.9-0.2-1.3,0.1L4.7,9.4c-0.3,0.3-0.4,0.9-0.1,1.3l3.3,4.8c-0.5,1-1,2-1.3,3.1l-5.8,1c-0.5,0.1-0.8,0.5-0.8,1v6.7   c0,0.5,0.3,0.9,0.8,1l5.8,1c0.3,1.1,0.8,2.1,1.3,3.1l-3.3,4.8c-0.3,0.4-0.2,0.9,0.1,1.3l4.8,4.8c0.3,0.3,0.9,0.4,1.3,0.1l4.8-3.3   c1,0.5,2,1,3.1,1.3l1,5.8c0.1,0.5,0.5,0.8,1,0.8h6.7c0.5,0,0.9-0.3,1-0.8l1-5.8c1.1-0.3,2.1-0.8,3.1-1.3l4.8,3.3   c0.4,0.3,0.9,0.2,1.3-0.1l4.8-4.8c0.3-0.3,0.4-0.9,0.1-1.3l-3.3-4.8c0.5-1,1-2,1.3-3.1l5.8-1c0.5-0.1,0.8-0.5,0.8-1v-6.7   C48,20.2,47.7,19.7,47.2,19.7z M46,26.5l-5.5,1c-0.4,0.1-0.7,0.3-0.8,0.7c-0.4,1.3-0.9,2.6-1.6,3.8c-0.2,0.3-0.2,0.8,0,1.1l3.2,4.6   l-3.6,3.6l-4.6-3.2c-0.3-0.2-0.7-0.2-1.1,0c-1.2,0.7-2.5,1.2-3.8,1.6c-0.4,0.1-0.7,0.4-0.7,0.8l-1,5.5h-5.1l-1-5.5   c-0.1-0.4-0.4-0.7-0.7-0.8c-1.3-0.4-2.6-0.9-3.8-1.6c-0.3-0.2-0.8-0.2-1.1,0l-4.6,3.2l-3.6-3.6l3.2-4.6c0.2-0.3,0.2-0.7,0-1.1   c-0.7-1.2-1.2-2.5-1.6-3.8c-0.1-0.4-0.4-0.7-0.8-0.7l-5.5-1v-5.1l5.5-1c0.4-0.1,0.7-0.3,0.8-0.7c0.4-1.3,0.9-2.6,1.6-3.8   c0.2-0.3,0.2-0.8,0-1.1l-3.2-4.6l3.6-3.6l4.6,3.2c0.3,0.2,0.7,0.2,1.1,0c1.2-0.7,2.5-1.2,3.8-1.6c0.4-0.1,0.7-0.4,0.7-0.8l1-5.5   h5.1l1,5.5c0.1,0.4,0.4,0.7,0.7,0.8c1.3,0.4,2.6,0.9,3.8,1.6c0.3,0.2,0.8,0.2,1.1,0l4.6-3.2l3.6,3.6l-3.2,4.6   c-0.2,0.3-0.2,0.7,0,1.1c0.7,1.2,1.2,2.5,1.6,3.8c0.1,0.4,0.4,0.7,0.8,0.7l5.5,1V26.5z"></path></g></svg>