<svg width="24" height="24" viewBox="0 0 24 24" fill="none" xmlns="http://www.w3.org/2000/svg">
<path d="M13.7822 17.2809L13.9709 17.3773L14.0969 17.207C14.7699 16.2978 15.8488 15.7083 17.0625 15.7083C19.0956 15.7083 20.75 17.3628 20.75 19.3958C20.75 21.4289 19.0956 23.0833 17.0625 23.0833C15.0294 23.0833 13.375 21.4289 13.375 19.3958C13.375 19.0151 13.433 18.648 13.5403 18.3028L13.6029 18.1017L13.4154 18.0059L7.25276 14.8566L7.06121 14.7587L6.93584 14.9335C6.26551 15.8681 5.17108 16.4771 3.9375 16.4771C1.90443 16.4771 0.25 14.8226 0.25 12.7896C0.25 10.7565 1.90443 9.10207 3.9375 9.10207C5.04092 9.10207 6.03273 9.58925 6.70969 10.3609L6.84739 10.5179L7.02638 10.4104L13.5202 6.50874L13.7008 6.4002L13.6244 6.20378C13.4635 5.79036 13.375 5.34099 13.375 4.87082C13.375 2.83775 15.0294 1.18332 17.0625 1.18332C19.0956 1.18332 20.75 2.83775 20.75 4.87082C20.75 6.90389 19.0956 8.55832 17.0625 8.55832C15.9399 8.55832 14.9328 8.05399 14.2553 7.25883L14.1179 7.09754L13.9363 7.20667L7.45863 11.0986L7.27528 11.2087L7.35576 11.4069C7.52917 11.834 7.625 12.3005 7.625 12.7896C7.625 13.1507 7.57263 13.4994 7.47557 13.8292L7.41704 14.028L7.60163 14.1224L13.7822 17.2809ZM19.9375 4.87082C19.9375 3.28532 18.648 1.99582 17.0625 1.99582C15.477 1.99582 14.1875 3.28532 14.1875 4.87082C14.1875 6.45632 15.477 7.74582 17.0625 7.74582C18.648 7.74582 19.9375 6.45632 19.9375 4.87082ZM1.0625 12.7896C1.0625 14.3751 2.352 15.6646 3.9375 15.6646C5.523 15.6646 6.8125 14.3751 6.8125 12.7896C6.8125 11.2041 5.523 9.91457 3.9375 9.91457C2.352 9.91457 1.0625 11.2041 1.0625 12.7896ZM14.1875 19.3958C14.1875 20.9813 15.477 22.2708 17.0625 22.2708C18.648 22.2708 19.9375 20.9813 19.9375 19.3958C19.9375 17.8103 18.648 16.5208 17.0625 16.5208C15.477 16.5208 14.1875 17.8103 14.1875 19.3958Z" fill="#333333" stroke="#333333" stroke-width="0.5"/>
</svg>
