<svg width="24" height="24" viewBox="0 0 24 24" fill="none" xmlns="http://www.w3.org/2000/svg">
<path d="M16.4375 15.0417C15.2617 15.0417 14.2138 15.5988 13.5435 16.4621L8.09909 13.6798C8.18108 13.3758 8.225 13.0565 8.225 12.7271C8.225 12.2719 8.14131 11.8358 7.98875 11.4332L13.7052 7.99863C14.3762 8.75044 15.3524 9.225 16.4375 9.225C18.4571 9.225 20.1 7.58209 20.1 5.5625C20.1 3.54291 18.4571 1.9 16.4375 1.9C14.4179 1.9 12.775 3.54291 12.775 5.5625C12.775 5.99941 12.8521 6.41875 12.9931 6.80773L7.25998 10.2523C6.59025 9.52293 5.62897 9.06458 4.5625 9.06458C2.54291 9.06458 0.9 10.7075 0.9 12.7271C0.9 14.7467 2.54291 16.3896 4.5625 16.3896C5.75764 16.3896 6.8206 15.8141 7.4893 14.9264L12.9152 17.6992C12.8239 18.0188 12.775 18.3559 12.775 18.7042C12.775 20.7238 14.4179 22.3667 16.4375 22.3667C18.4571 22.3667 20.1 20.7238 20.1 18.7042C20.1 16.6846 18.4571 15.0417 16.4375 15.0417ZM16.4375 3.2875C17.6918 3.2875 18.7125 4.30815 18.7125 5.5625C18.7125 6.81685 17.6918 7.8375 16.4375 7.8375C15.1832 7.8375 14.1625 6.81685 14.1625 5.5625C14.1625 4.30815 15.1832 3.2875 16.4375 3.2875ZM4.5625 15.0021C3.30815 15.0021 2.2875 13.9814 2.2875 12.7271C2.2875 11.4727 3.30815 10.4521 4.5625 10.4521C5.81685 10.4521 6.8375 11.4727 6.8375 12.7271C6.8375 13.9814 5.81685 15.0021 4.5625 15.0021ZM16.4375 20.9792C15.1832 20.9792 14.1625 19.9585 14.1625 18.7042C14.1625 17.4498 15.1832 16.4292 16.4375 16.4292C17.6918 16.4292 18.7125 17.4498 18.7125 18.7042C18.7125 19.9585 17.6918 20.9792 16.4375 20.9792Z" fill="#A217D3" stroke="#A217D3" stroke-width="0.2"/>
</svg>
