<svg height='100px' width='100px'  fill="#4D4D4D" xmlns="http://www.w3.org/2000/svg" xmlns:xlink="http://www.w3.org/1999/xlink" version="1.1" x="0px" y="0px" viewBox="0 0 100 100" style="enable-background:new 0 0 100 100;" xml:space="preserve"><path d="M50,4.8l0,7h0c0.6,0,1.2,0,1.8,0C71.3,12.7,87.2,28.7,88,48.2c0.4,10.4-3.3,20.3-10.4,27.8c-7.2,7.5-16.8,11.7-27.2,11.8  l-38.3,0l0-39.1c0.3-9.9,4.4-19.1,11.5-26.1c7.1-7,16.5-10.8,26.5-10.8L50,4.8 M50,4.8C25.6,4.8,5.7,24.2,5,48.5l0,43.2  c0,1.7,1.3,3,3,3c0,0,0,0,0,0l42.4,0C75.7,94.5,96,73.5,95,47.9C94,24.7,75.2,5.9,52.1,4.8C51.4,4.8,50.7,4.8,50,4.8L50,4.8z"></path><g><path d="M58.8,72.2h-17v-2.3c0.6-0.3,1.3-0.6,1.9-0.8c0.7-0.2,1.4-0.4,2.2-0.7V45.6l-4.1-0.5v-2.3c0.6-0.2,1.4-0.5,2.3-0.7   c0.9-0.2,1.9-0.5,2.9-0.6c1-0.2,2-0.3,3-0.5c1-0.1,1.9-0.3,2.6-0.3h2.1v27.8c0.8,0.2,1.6,0.4,2.2,0.6c0.7,0.2,1.3,0.5,1.9,0.8V72.2   z M44.9,31.2c0-1.4,0.5-2.6,1.5-3.4c1-0.8,2.2-1.2,3.8-1.2c1.5,0,2.8,0.4,3.8,1.2c1,0.8,1.5,2,1.5,3.4c0,1.4-0.5,2.5-1.5,3.3   c-1,0.8-2.2,1.2-3.8,1.2c-1.5,0-2.8-0.4-3.8-1.2C45.4,33.7,44.9,32.6,44.9,31.2z"></path></g></svg>