<svg xmlns="http://www.w3.org/2000/svg" xmlns:xlink="http://www.w3.org/1999/xlink" width="100" height="100" viewBox="0 0 100 100"><rect width="100%" height="100%" fill="#ffffff"></rect><g transform="translate(50 50) scale(0.69 0.69) rotate(0) translate(-50 -50)" style="fill:#848484"><svg fill="#848484" xmlns:x="http://ns.adobe.com/Extensibility/1.0/" xmlns:i="http://ns.adobe.com/AdobeIllustrator/10.0/" xmlns:graph="http://ns.adobe.com/Graphs/1.0/" xmlns="http://www.w3.org/2000/svg" xmlns:xlink="http://www.w3.org/1999/xlink" version="1.1" x="0px" y="0px" viewBox="0 0 100 100" style="enable-background:new 0 0 100 100;" xml:space="preserve"><g><g i:extraneous="self"><g><path d="M69.6,49c-0.6-0.4-1.3-0.3-1.8,0.1c-5,3.7-11.1,5.8-17.8,5.8c-6.7,0-12.8-2.2-17.8-5.8c-0.5-0.4-1.3-0.4-1.8-0.1     c-11.8,7.6-17.7,22.5-17.7,39.6c0,11.8,74.6,11.8,74.6,0C87.3,71.5,81.4,56.6,69.6,49z"></path><circle cx="50" cy="24.8" r="22.3"></circle></g></g></g></svg></g></svg>